<?xml version="1.0" standalone="no"?>
<!DOCTYPE svg PUBLIC "-//W3C//DTD SVG 20010904//EN"
 "http://www.w3.org/TR/2001/REC-SVG-20010904/DTD/svg10.dtd">
<svg version="1.0" xmlns="http://www.w3.org/2000/svg"
 width="716.000000pt" height="716.000000pt" viewBox="0 0 716.000000 716.000000"
 preserveAspectRatio="xMidYMid meet">
<metadata>
Created by potrace 1.14, written by Peter Selinger 2001-2017
</metadata>
<g transform="translate(0.000000,716.000000) scale(0.100000,-0.100000)"
fill="#000000" stroke="none">
<path d="M3350 6914 c-210 -25 -367 -61 -555 -126 -109 -39 -343 -148 -422
-197 l-31 -20 19 -38 c10 -20 19 -47 19 -59 0 -11 4 -34 9 -50 5 -16 12 -41
15 -56 l6 -27 67 41 c232 141 506 241 783 286 150 24 496 23 640 -2 378 -65
676 -195 978 -428 l102 -79 0 79 c0 65 3 82 20 100 12 12 26 22 33 22 7 0 13
9 14 20 2 23 -61 74 -214 173 -255 166 -552 282 -863 337 -100 18 -170 23
-355 25 -126 2 -246 1 -265 -1z"/>
<path d="M2435 6740 c-3 -6 1 -7 9 -4 18 7 21 14 7 14 -6 0 -13 -4 -16 -10z"/>
<path d="M4778 6703 c6 -2 9 -10 6 -15 -4 -7 -2 -8 5 -4 13 9 5 26 -12 25 -9
0 -8 -2 1 -6z"/>
<path d="M5023 6575 c0 -8 4 -12 9 -9 5 3 6 10 3 15 -9 13 -12 11 -12 -6z"/>
<path d="M2270 6507 c-14 -7 -36 -33 -49 -57 -22 -38 -28 -75 -48 -265 -24
-234 -29 -375 -14 -391 12 -12 35 -280 25 -295 -3 -6 -10 -122 -14 -258 -5
-179 -12 -266 -25 -318 -16 -69 -19 -73 -45 -73 -51 0 -108 -28 -199 -99 -50
-39 -96 -72 -103 -73 -14 -3 -16 15 -17 200 -1 74 -5 122 -11 122 -6 0 -10
-66 -10 -179 l0 -180 -32 -24 c-18 -13 -54 -34 -81 -48 -64 -33 -78 -64 -76
-178 1 -74 5 -93 20 -107 16 -14 19 -32 19 -104 l0 -87 77 -64 c107 -88 113
-95 113 -128 0 -17 5 -33 11 -37 7 -4 8 -20 4 -43 -4 -20 -9 -89 -12 -154 -4
-105 -2 -123 16 -161 12 -23 21 -48 21 -54 0 -6 12 -18 28 -25 36 -19 139 -30
147 -17 3 5 18 10 33 10 25 0 29 -6 51 -81 14 -45 30 -87 37 -93 8 -9 51 -12
138 -11 69 1 127 3 129 6 13 15 47 233 47 300 0 69 3 82 18 86 36 9 43 51 36
215 -4 86 -4 163 -1 172 6 15 14 11 52 -21 42 -35 45 -40 45 -86 0 -33 12 -79
39 -145 39 -96 40 -100 47 -267 l7 -170 53 -43 c29 -23 87 -67 128 -98 77 -57
78 -58 101 -156 11 -44 45 -66 168 -108 98 -33 131 -40 197 -40 78 0 79 0 99
-33 11 -18 31 -43 45 -56 16 -15 26 -35 26 -51 0 -56 12 -90 31 -90 11 0 19 5
19 10 0 14 56 13 80 -2 10 -7 21 -10 24 -7 3 3 10 34 14 69 6 39 15 66 25 71
8 5 26 26 38 47 13 20 28 40 33 44 6 4 46 8 89 8 67 0 93 6 185 41 126 49 157
76 167 150 7 52 7 52 223 228 l53 44 -1 171 -2 171 36 89 c24 60 36 105 36
138 0 45 4 52 43 88 23 22 45 40 50 40 4 0 7 -78 7 -173 0 -180 8 -221 42
-231 15 -3 18 -16 18 -78 1 -79 41 -286 59 -297 17 -11 250 -6 261 5 5 5 19
46 32 92 19 69 27 84 46 89 13 3 29 0 35 -6 16 -16 87 -13 130 7 33 14 43 27
63 76 31 76 35 243 7 301 -14 29 -15 40 -5 55 7 11 12 34 12 52 0 26 10 40 52
77 29 25 72 65 95 87 l43 41 0 85 c0 64 4 89 15 98 23 19 20 182 -4 236 -16
35 -27 44 -66 58 -26 8 -63 27 -81 41 l-34 26 0 98 c0 54 -3 140 -7 192 -8 91
-8 88 -13 -89 l-5 -183 -57 41 c-51 36 -58 45 -58 74 0 30 4 34 31 40 l32 6
-9 98 c-5 53 -8 167 -6 252 2 189 1 534 -3 538 -1 1 -32 5 -67 9 l-66 6 -4
166 c-2 103 -8 174 -16 188 -8 15 -12 79 -12 197 0 97 -4 176 -9 176 -4 0 -9
-60 -9 -132 -1 -142 -22 -580 -28 -587 -13 -15 -18 37 -23 266 l-6 258 -6
-250 c-3 -137 -9 -258 -14 -268 -5 -11 -16 -17 -29 -15 -20 3 -21 10 -26 138
l-6 135 -2 -134 c-2 -129 -3 -135 -27 -157 -16 -15 -25 -34 -25 -54 0 -23 -5
-33 -20 -37 -11 -3 -20 -11 -20 -18 0 -7 -7 -18 -15 -25 -12 -10 -15 -40 -15
-149 l0 -137 -51 -75 c-45 -64 -52 -80 -49 -116 2 -46 2 -146 -3 -314 -3 -112
-12 -139 -49 -139 -18 0 -19 -6 -16 -97 2 -54 6 -104 8 -112 3 -7 -1 -16 -7
-18 -9 -3 -13 6 -13 29 0 54 -10 58 -157 58 -73 0 -133 4 -133 9 0 15 56 32
83 25 25 -6 27 -4 27 25 0 37 -92 225 -116 239 -18 10 -40 118 -49 241 -3 36
-8 67 -11 70 -10 10 -168 12 -182 3 -9 -6 -18 -58 -28 -148 -7 -76 -18 -177
-24 -224 -5 -47 -10 -88 -10 -92 0 -5 -20 -8 -44 -8 -38 0 -56 -9 -142 -70
-86 -61 -144 -86 -144 -62 0 4 -7 63 -15 132 -8 69 -15 126 -15 128 0 1 -58 2
-129 2 l-129 0 -7 -87 c-14 -166 -17 -178 -47 -181 -19 -2 -50 14 -114 60 -73
52 -97 64 -138 68 l-51 5 -17 115 c-10 63 -18 122 -18 130 -2 34 -21 186 -26
203 -5 14 -18 17 -94 17 -105 0 -104 1 -114 -110 -14 -164 -18 -185 -41 -210
-28 -31 -102 -189 -111 -237 l-7 -36 36 7 c37 7 77 -6 77 -24 0 -6 -51 -10
-124 -10 -138 0 -156 -7 -156 -60 0 -16 -4 -31 -10 -35 -5 -3 -7 26 -3 77 7
110 -4 152 -41 156 l-28 4 4 86 c3 48 -1 134 -8 192 -15 119 -35 447 -41 682
-4 122 -1 172 11 221 13 51 14 81 7 157 -5 52 -14 147 -21 210 -6 63 -17 144
-25 180 -8 36 -16 77 -20 93 -6 31 -10 32 -45 14z"/>
<path d="M2034 6342 c-481 -429 -747 -967 -795 -1614 -52 -682 247 -1418 760
-1875 359 -320 779 -518 1246 -589 178 -27 504 -25 685 4 265 43 480 114 719
238 459 238 802 590 1031 1059 43 88 92 201 109 250 197 588 164 1207 -95
1763 -95 205 -263 447 -424 615 l-89 92 -1 -63 c0 -35 5 -73 11 -84 6 -11 13
-66 16 -122 5 -95 8 -104 40 -148 19 -27 41 -48 49 -48 24 0 54 -38 54 -69 0
-17 20 -62 47 -108 120 -202 207 -438 254 -687 30 -158 37 -486 14 -651 -32
-234 -96 -441 -208 -675 -30 -63 -61 -132 -68 -153 -8 -22 -25 -46 -40 -54
-14 -9 -34 -28 -43 -44 -77 -130 -317 -374 -498 -506 -522 -381 -1219 -497
-1844 -308 -403 123 -779 376 -1029 694 -27 35 -68 83 -91 105 -60 61 -227
409 -284 595 -104 335 -120 760 -40 1097 79 340 247 665 474 919 39 44 81 91
93 105 13 14 23 38 23 55 0 17 7 88 15 159 8 71 14 131 12 133 -2 1 -48 -37
-103 -85z"/>
<path d="M1846 6328 c3 -5 10 -6 15 -3 13 9 11 12 -6 12 -8 0 -12 -4 -9 -9z"/>
<path d="M1784 6258 c-19 -23 -19 -23 2 -5 11 9 24 14 29 10 4 -5 5 -2 1 5 -9
16 -10 16 -32 -10z"/>
<path d="M3532 6240 c-18 -11 -37 -32 -42 -46 -6 -14 -10 -97 -10 -185 0 -123
3 -167 15 -189 30 -59 98 -68 146 -21 l29 29 0 184 c0 197 -4 210 -57 237 -30
15 -43 14 -81 -9z"/>
<path d="M1697 6179 c7 -7 15 -10 18 -7 3 3 -2 9 -12 12 -14 6 -15 5 -6 -5z"/>
<path d="M5564 6029 c-4 -7 -3 -9 4 -5 5 3 13 0 15 -6 4 -9 6 -10 6 -1 1 17
-16 25 -25 12z"/>
<path d="M1537 5963 c-4 -3 -7 -11 -7 -17 0 -6 5 -5 12 2 6 6 9 14 7 17 -3 3
-9 2 -12 -2z"/>
<path d="M1456 5853 c-4 -9 -3 -20 1 -24 4 -4 9 3 9 17 2 28 -1 31 -10 7z"/>
<path d="M1290 3661 c0 -6 4 -13 10 -16 6 -3 7 1 4 9 -7 18 -14 21 -14 7z"/>
<path d="M1291 3604 c0 -11 3 -14 6 -6 3 7 2 16 -1 19 -3 4 -6 -2 -5 -13z"/>
<path d="M1380 3465 c-7 -9 -8 -15 -2 -15 5 0 12 7 16 15 3 8 4 15 2 15 -2 0
-9 -7 -16 -15z"/>
<path d="M5653 3316 c0 -8 5 -12 10 -9 7 4 8 -1 3 -13 -6 -15 -5 -17 5 -6 11
10 10 15 -2 28 -14 13 -16 13 -16 0z"/>
<path d="M5624 3252 c4 -3 14 -7 22 -8 9 -1 13 0 10 4 -4 3 -14 7 -22 8 -9 1
-13 0 -10 -4z"/>
<path d="M1756 2932 c-3 -5 1 -9 9 -9 8 0 12 4 9 9 -3 4 -7 8 -9 8 -2 0 -6 -4
-9 -8z"/>
<path d="M5333 2894 c7 -13 -16 -37 -26 -29 -4 3 -5 2 -3 -1 2 -3 6 -5 8 -3 2
1 13 -3 26 -10 23 -12 23 -12 11 11 -7 13 -11 25 -10 26 2 2 -1 7 -5 10 -4 4
-4 2 -1 -4z"/>
<path d="M5170 2756 c0 -2 7 -7 16 -10 8 -3 12 -2 9 4 -6 10 -25 14 -25 6z"/>
<path d="M5147 2733 c-3 -5 6 -9 20 -10 19 -1 22 1 12 8 -17 11 -26 11 -32 2z"/>
<path d="M2086 2641 c-3 -5 2 -15 12 -22 15 -12 16 -12 5 2 -7 9 -10 19 -6 22
3 4 4 7 0 7 -3 0 -8 -4 -11 -9z"/>
<path d="M2167 2569 c7 -7 15 -10 18 -7 3 3 -2 9 -12 12 -14 6 -15 5 -6 -5z"/>
<path d="M2167 2539 c7 -7 15 -10 18 -7 3 3 -2 9 -12 12 -14 6 -15 5 -6 -5z"/>
<path d="M4700 2390 c-9 -6 -10 -10 -3 -10 6 0 15 5 18 10 8 12 4 12 -15 0z"/>
<path d="M4238 2213 c7 -3 16 -2 19 1 4 3 -2 6 -13 5 -11 0 -14 -3 -6 -6z"/>
<path d="M3338 2143 c7 -3 16 -2 19 1 4 3 -2 6 -13 5 -11 0 -14 -3 -6 -6z"/>
<path d="M1895 2036 c-57 -20 -79 -34 -121 -79 -84 -91 -86 -102 -82 -612 3
-424 3 -431 26 -481 27 -60 89 -123 152 -156 40 -20 59 -23 170 -23 114 0 130
2 180 26 70 33 110 74 146 147 l29 57 3 428 c3 464 1 492 -52 576 -61 95 -136
132 -281 138 -87 3 -109 1 -170 -21z m223 -203 c13 -8 27 -25 32 -39 16 -40
13 -824 -2 -857 -16 -33 -63 -57 -112 -57 -27 0 -46 8 -74 34 l-37 34 0 415
c0 406 0 416 21 444 37 49 115 62 172 26z"/>
<path d="M5892 2044 c-96 -25 -161 -74 -195 -146 -46 -98 -42 -258 10 -362 26
-53 92 -138 130 -169 13 -10 29 -24 36 -30 6 -7 34 -30 61 -52 131 -105 196
-199 196 -283 0 -85 -96 -144 -175 -107 -43 21 -85 95 -85 150 0 41 5 40 -134
23 l-98 -12 6 -46 c3 -25 16 -74 28 -110 24 -73 84 -145 158 -188 42 -25 53
-27 165 -27 109 0 125 2 176 26 124 59 179 155 179 317 0 91 -2 103 -35 171
-37 76 -82 126 -291 321 -124 115 -154 180 -123 268 22 65 111 84 168 36 29
-24 56 -88 45 -106 -7 -11 26 -10 145 3 86 10 98 14 91 28 -4 9 -16 43 -25 76
-31 106 -79 165 -172 210 -42 20 -66 25 -130 24 -43 0 -102 -7 -131 -15z"/>
<path d="M908 1377 c-2 -365 -2 -670 0 -678 4 -22 450 -8 512 17 60 23 127 70
141 97 7 12 15 24 18 27 20 16 44 96 52 173 20 174 -22 296 -126 365 -27 18
-44 32 -38 32 14 0 84 67 105 100 35 57 48 193 27 292 -22 103 -73 168 -164
210 -47 22 -64 23 -287 26 l-238 3 -2 -664z m391 452 c47 -26 71 -80 71 -159
0 -115 -50 -168 -166 -178 l-64 -5 0 182 0 181 61 0 c43 0 72 -6 98 -21z m19
-556 c54 -26 76 -78 80 -183 2 -79 0 -88 -26 -125 -38 -55 -82 -75 -164 -75
l-68 0 0 206 0 207 71 -6 c38 -3 87 -14 107 -24z"/>
<path d="M2460 1365 l0 -675 100 0 100 0 1 518 c1 579 -3 569 64 212 17 -89
72 -365 117 -577 l31 -153 53 0 c29 0 55 4 58 9 3 4 17 69 31 142 15 74 40
199 56 279 17 80 37 183 45 230 9 46 17 87 20 91 2 4 8 35 14 70 5 35 16 91
24 124 13 54 14 13 15 -442 l1 -503 105 0 105 0 0 675 0 675 -154 0 -154 0
-16 -77 c-9 -43 -23 -105 -31 -138 -7 -33 -34 -163 -60 -290 -25 -126 -49
-239 -52 -250 -5 -13 -13 8 -24 65 -15 78 -64 313 -121 583 l-23 107 -152 0
-153 0 0 -675z"/>
<path d="M3492 1368 l3 -673 220 0 c281 0 320 9 411 101 56 55 63 67 79 134
22 91 23 219 1 295 -18 60 -74 132 -131 166 -16 11 -25 19 -18 19 18 0 73 50
97 89 75 120 52 363 -41 453 -81 77 -132 88 -406 88 l-218 0 3 -672z m387 466
c55 -22 81 -76 81 -167 0 -115 -63 -177 -178 -177 l-52 0 0 180 0 180 55 0
c30 0 72 -7 94 -16z m28 -561 c49 -25 76 -78 81 -160 5 -77 -13 -145 -50 -182
-31 -32 -64 -41 -149 -41 l-59 0 0 206 0 207 69 -5 c40 -3 86 -13 108 -25z"/>
<path d="M4242 1368 l3 -673 323 -3 322 -2 0 107 0 108 -205 -3 -205 -3 0 195
0 195 146 3 147 3 -1 100 -1 100 -145 3 -146 3 0 169 0 170 190 0 190 0 0 100
0 100 -310 0 -310 0 2 -672z"/>
<path d="M4920 1366 l0 -676 115 0 115 0 2 277 3 278 57 3 c47 2 57 0 62 -15
21 -72 101 -347 112 -388 8 -27 21 -74 29 -103 l16 -52 115 1 c94 1 116 4 121
16 3 9 2 23 -4 32 -5 9 -36 97 -67 196 -32 99 -70 221 -86 270 l-29 90 46 40
c53 45 87 113 104 209 15 82 -1 250 -30 318 -25 60 -81 114 -150 147 -55 25
-61 26 -293 29 l-238 4 0 -676z m382 472 c25 -7 50 -25 66 -46 22 -29 27 -46
30 -122 3 -65 0 -101 -13 -139 -22 -67 -53 -84 -155 -85 l-75 -1 -3 203 -3
202 57 0 c31 0 74 -5 96 -12z"/>
<path d="M4900 360 l0 -210 158 0 c218 1 262 22 262 126 0 26 -8 44 -30 66
l-31 30 27 26 c52 53 12 150 -69 166 -16 3 -94 6 -173 6 l-144 0 0 -210z m315
148 c27 -12 41 -47 31 -73 -11 -30 -71 -45 -181 -45 l-105 0 0 65 0 65 115 0
c66 0 125 -5 140 -12z m23 -184 c32 -22 30 -76 -4 -103 -24 -19 -40 -21 -150
-21 l-124 0 0 70 0 70 128 0 c99 0 132 -3 150 -16z"/>
<path d="M5539 518 c-13 -29 -26 -55 -29 -58 -8 -8 -150 -294 -150 -302 0 -5
13 -8 28 -8 24 0 32 8 55 55 l26 54 132 -2 132 -2 26 -52 c22 -45 30 -53 54
-53 15 0 27 5 27 11 0 6 -46 100 -102 210 l-103 199 -36 0 c-33 0 -37 -3 -60
-52z m117 -111 c24 -49 44 -90 44 -93 0 -2 -45 -4 -100 -4 -55 0 -100 1 -100
3 0 2 23 50 52 108 29 58 53 97 56 89 3 -8 24 -55 48 -103z"/>
<path d="M5909 563 c0 -5 -1 -99 -2 -210 l-2 -203 28 0 27 0 0 90 0 90 80 0
79 0 63 -90 c60 -85 65 -89 101 -90 20 0 37 2 37 5 0 5 -95 133 -120 163 -8 9
-6 14 7 18 84 27 102 47 105 113 2 51 -25 91 -73 108 -37 13 -329 18 -330 6z
m319 -63 c25 -15 32 -27 32 -50 0 -51 -34 -64 -177 -69 l-123 -3 0 71 0 71
118 0 c99 0 122 -3 150 -20z"/>
</g>
</svg>
